<svg id="Calque_1" data-name="Calque 1" xmlns="http://www.w3.org/2000/svg" viewBox="0 0 1860.25 1860.59"><defs><style>.cls-1{fill:#081e30;}</style></defs><path class="cls-1" d="M898.9.19c-76.5,3.9-129.5,11.3-192.5,26.9-144.9,35.9-277.2,105.2-391.5,205-21.8,19.1-63.9,61.2-83,83-99.8,114.3-169.1,246.6-205,391.5C8.3,781.59,0,850.69,0,930.09s8.4,149.5,27,224c61.2,245.4,218.8,455.1,436.9,581.2,153.7,89,331.9,132.6,507.5,124.3,213.6-10.1,410.2-89.3,573-230.8,30.8-26.7,78.8-76.6,107-111.2,99.2-121.3,167-269.4,194.5-424.5,55.7-314-53-634.5-287.9-849.2a930.74,930.74,0,0,0-367.6-206.8c-66.3-19.3-130.5-30.6-202.5-35.5C972.4.49,911.2-.41,898.9.19Zm-778,563.4c26.8,1.3,86.5,1.3,111,0,10.5-.5,21.6-1.1,24.9-1.2l5.9-.3,6.2,16.5c3.5,9.1,13.8,36.3,23,60.5s22.7,59.7,30,79,20.1,53,28.5,75,21.2,55.7,28.5,75,20.1,53,28.5,75c23.6,62.1,46.1,121.2,58.2,153.4,7.8,20.5,11.4,28.8,11.9,27.5,3.9-10.4,118.2-316.5,184.2-493.4l24.5-65.5,65.8-.7c36.3-.4,74.2-1.1,84.4-1.6s18.8-.8,19.3-.5.7,4.6.7,9.7v9.4l-8.7.7c-12.7,1-28.4,3.2-35.6,5.1-17.9,4.6-26.9,14-31.1,32.4-3.1,13.8-3.6,28.5-3.6,112.2v83.8h-91l-.2-93.7-.3-93.7-19.2,51.4c-10.5,28.3-32.7,87.9-49.3,132.5s-42.2,113.4-57,153-41.1,110.2-58.5,157-35.7,96-40.7,109.5-9.7,24.8-10.2,25.2-4.1.8-7.8.8c-5.4,0-6.9-.3-7.7-1.8s-7-17.5-50.6-129.7c-9.1-23.4-23.9-61.6-33-85s-23.9-61.6-33-85-23.9-61.6-33-85-23.9-61.5-32.9-84.8-23.9-61.6-33.1-85.2c-27.7-71.5-28.7-74-29.1-74.4s-.3,121.9-.1,271.5c.3,202.8.7,273.6,1.5,278.4,4.6,25.1,11.2,36.1,26.7,44.2,9.8,5.1,25.6,8.9,42,10.2,4.4.4,10.4.9,13.3,1.2l5.3.6-.3,9.6c-.3,9-.4,9.7-2.3,9.5-10.8-1-63-2.3-95.5-2.3s-79.6,1.2-90.5,2.3c-1.9.2-2-.5-2.3-9.5l-.3-9.7,4.3-.5c2.4-.3,8.6-.9,13.8-1.5,26.6-2.9,42.4-11,51.3-26.3,3.8-6.3,7.4-21.3,8.6-35.5,1.4-15.4,1.4-518.6.1-532.8-2.9-30.9-11.4-43.1-34-49-6.9-1.8-22.7-4.1-35.2-5l-8.8-.7v-9.3c0-5,.3-9.5.7-9.8s2.9-.5,5.7-.2S109.3,563.09,120.9,563.59Zm912,0c27,1.3,86.8,1.3,110.5,0,10.2-.5,21.3-1.1,24.8-1.2l6.3-.3,22.5,59c12.3,32.4,28.9,76.1,36.9,97s21,55.3,29,76.5,22.1,58.1,31.2,82,21.8,57.4,28.3,74.5c15.5,40.7,42.6,112,55.6,146.4,5.7,15.1,10.5,27.6,10.7,27.7.2.3,13.1-34,111.4-297.6l69.3-185.5,28.8-77,65.8-.7c36.3-.4,74.2-1.1,84.4-1.6s18.8-.8,19.3-.5.7,4.6.7,9.7v9.3l-13.2,1.2c-46.3,4.2-57.6,11.9-63.6,43.4-1.6,8.6-1.7,27.1-1.7,281.2s.1,272.6,1.7,281.2c5.1,26.6,14.1,35.4,41.3,40.3,5.5,1,13.6,2.1,18,2.4s10.2.9,12.8,1.2l4.8.6-.3,9.6c-.3,9.6-.3,9.7-2.8,9.5-17.9-1.1-80.6-2.3-122.5-2.3-51,0-115,1.4-120.7,2.6l-2.8.6v-20l4.8-.6c2.6-.3,8.5-.8,13.2-1.2,11.9-.9,29.8-4.7,36.4-7.7,6.4-3,13.5-9.8,16.5-16,3.5-7.1,5.9-19.5,7.1-35.2.8-10.5,1-95.2.8-279.5l-.3-264.5-20.7,55.5c-66.4,178.2-166.7,447.6-207,556-3.4,9.1-6.7,16.8-7.2,17.2s-4.1.8-7.8.8c-5.4,0-6.9-.3-7.7-1.8-.9-1.7-6-14.8-38.5-98.5-27-69.6-48.1-123.9-69.6-179.2-11.1-28.6-27.6-71.1-36.7-94.5s-23.9-61.6-33-85-27-69.5-39.8-102.5c-26.9-69.3-25-64.7-29-70.5-7-10.2-9.9-13.8-16-19.1-7-6-12.1-8.9-25.9-14.4-14.3-5.7-27-8.2-49.8-10l-8.8-.7v-9.3c0-5,.3-9.5.7-9.8s2.9-.5,5.7-.2S1021.3,563.09,1032.9,563.59Zm-16.5,284.1c13.7,3.2,24,8.8,34,18.9,14.1,14,19.1,26.7,19.1,48,0,19.3-5.1,33.5-17,47.7-15.1,17.9-30.6,26.1-80.8,42.5-13.9,4.6-25.3,8.5-25.3,8.8s3.2,2.1,7.1,4c15.1,7.4,29.8,22.1,37.3,37.5,7.2,14.7,10,27.4,9.9,45.5,0,24.4-6.7,44.3-21.6,64.3-28.1,37.9-75.9,58.7-134.7,58.7-35.9,0-67.7-7.2-96.2-21.6-35.4-18-58.6-44.9-67.5-78.1-2.4-8.9-2.6-11.5-2.6-28.3s.2-19.4,2.5-28.1c4.6-17.2,13.8-32.2,28.7-46.9,13.1-13,31-23.5,53.1-31.4l9.4-3.4-6.4-3.2c-25.5-12.9-41.3-33.1-44.2-56.9-3-24,10-45.9,35.2-59,15-7.9,30-11.1,51.2-11.1,26.2,0,44,6,57.3,19.3,21.4,21.3,19.9,48.1-3.2,56.7-25.2,9.4-47.3-17-32.5-38.8A28.9,28.9,0,0,1,845.3,881a46.22,46.22,0,0,0,6-2c.3-.3-1.1-2-3-4-7.3-7.6-19.2-11.4-35.9-11.4-12.8,0-21,1.9-30.2,6.7-13.8,7.2-24,20.9-27.3,36.8-1.9,9.2-1.9,24.7.1,34.3,2.7,13.2,11.4,29.2,20.7,38.1l3.6,3.4,7.8-1.2c23.1-3.2,34.6-2.4,40.9,3.1,2.8,2.5,3.4,3.7,3.4,7,0,7.4-6.4,10.7-18.3,9.4-7.6-.8-10.4-1.6-23.5-6.8l-10.3-4-6.2,2.2c-8,2.9-20.6,9.1-26.5,13.2-17,11.5-28.8,30.6-32.2,52.2-1.8,10.8-.8,34,1.8,43.8,12.9,48,54.8,77.6,117.4,82.9,26,2.2,55.4-1.1,79.9-9.2,56.3-18.4,83.3-61.6,68.3-109-6.4-20.4-14.9-31.4-32.2-41.8-13.7-8.2-13.4-8.2-32.9-2.1-48.4,15.1-67,23.7-78.4,36.4-9.1,10.1-10.9,27.5-4.1,39.9,5.8,10.7,22.1,20.9,36.3,22.7,13,1.6,29.7-2,35.3-7.5,2-2.1,2-3.5.1-3.5-3,0-13.2-5.9-16.4-9.5-4.4-5.1-5.3-7.8-5.4-16-.1-11.7,4.8-19.5,14.9-24.2,5.9-2.7,15.2-3.3,21.9-1.4,15.8,4.3,23,24.5,15,41.9-5.1,11.1-20.6,21.9-38,26.3-10.7,2.7-28.5,3-37.5.6-11.8-3.1-22.7-9.2-30.5-17.1-10.9-11-15.5-23.2-15.5-40.9.1-26,12.3-45.2,38.9-61,13.5-8.1,24.9-12.3,62.1-23.3,64.3-19,81.9-25.2,102.9-35.9,28.2-14.4,39.1-30.2,36-52.1-2.7-19.4-20.7-37.7-41.9-42.7-9.7-2.3-17.9-2.9-23.9-1.7-8.4,1.6-8.7,2.4-3.2,7.8,5.1,5,9.1,13.5,9.1,19.4,0,12.2-10.9,23.2-25.1,25.3-8.3,1.2-19.7-2.8-25.2-9-8.7-9.7-7.3-28.1,2.9-37.5C960.6,847.09,990.8,841.89,1016.4,847.69Zm86.3,245.1c.4,67.8.6,79.4,2.1,86.8,4.6,23.7,11.2,33.8,27.2,41.8,9.1,4.6,25.4,8.4,40.9,9.6,4.4.4,10.4.9,13.3,1.2l5.3.6-.3,9.6c-.3,9-.4,9.7-2.3,9.5-10.8-1-63-2.3-95.5-2.3s-79.6,1.2-90.5,2.3c-1.9.2-2-.5-2.3-9.5l-.3-9.7,4.3-.5c2.4-.3,8.6-.9,13.8-1.5,26.6-2.9,42.4-11,51.3-26.3,3.8-6.3,7.3-20.9,8.6-35.5.7-7.5,1.1-39.4,1.1-83.2v-71.1h22.9Zm-211.3,328.8a6.79,6.79,0,0,0,2.8,1,1.12,1.12,0,0,1,1.2,1c0,.6-3.8,1-9.5,1s-9.5-.4-9.5-1,.5-1,1.2-1a5.83,5.83,0,0,0,3-1.7c1.7-1.5,1.8-3.7,1.8-26.7,0-21.2-.2-25.5-1.6-27.4a4.86,4.86,0,0,0-3-2.2c-.8,0-1.4-.4-1.4-1s2.8-1,6.3-1.2l6.2-.3.5,29.3C889.8,1416,890.1,1420.79,891.4,1421.59Zm23,0a6.79,6.79,0,0,0,2.8,1,1.12,1.12,0,0,1,1.2,1c0,.6-3.8,1-9.4,1-5.3,0-9.8-.4-10.1-1s.2-1,1.2-1c4.1,0,4.3-1.3,4.3-29.2v-26.8l-2.5-1.2c-4-1.8-2.9-2.7,3.8-3l6.2-.3.5,29.3C912.8,1416,913.1,1420.79,914.4,1421.59Zm553-30.4v29.6l3,1.1c1.7.6,3,1.5,3,1.9,0,1.2-18.8,1-19.5-.2-.3-.6.2-1,1.2-1,4.1,0,4.3-1.4,4.3-28.6,0-22.5-.2-26.5-1.6-27.8a5.16,5.16,0,0,0-3.2-1.6q-1.5,0-.6-.9c.5-.6,3.4-1.2,6.4-1.4s5.8-.4,6.3-.5S1467.4,1374.89,1467.4,1391.19Zm-444.4-25.9c1.8,2.4,1.7,4.3-.3,6.5-2.3,2.6-5.9,2.3-7.9-.7-1.5-2.3-1.5-2.7,0-5C1016.8,1363.09,1021,1362.69,1023,1365.29Zm290.6.8c1.7,3.7-.3,7.5-4,7.5-3.5,0-5.2-1.6-5.2-5s1.7-5,5.2-5A3.76,3.76,0,0,1,1313.6,1366.09Zm-575.2,2c3.9,2,6,5.3,6,9.3,0,6.7-4.4,11-14.4,14.2l-3.8,1.2,3,2.8c8.6,7.8,4.9,21.4-7.4,27.6-3,1.5-6,1.9-12.9,1.9-8.1,0-9.5-.3-14.4-3-7.4-4.1-10.6-9.1-10.6-16.6,0-4.3.5-6.5,2.1-8.6a31.18,31.18,0,0,1,9.7-7.7c.8-.3.5-1.1-.9-2.3-6.7-5.7-5.5-14.3,2.4-17.4,3-1.2,9.4-1.2,12.6.1,5.7,2.1,7.1,9.3,2,10.6-4.6,1.2-7.2-3.7-3.8-7.1,2.2-2.2,1.1-3-3.9-2.9-7.3.2-10.9,7.3-7.2,14.4,1.3,2.6,2.1,3,5.5,3,3.9,0,6,1.4,4.3,3.1-.5.5-2.4.4-4.6-.2-4.4-1.2-8.4.6-11.1,5.1-2,3.5-2.1,10.2-.1,13.9,4.9,9.6,20.6,12.9,32.4,6.9,8.4-4.4,10.4-13.7,4.1-20-3.2-3.2-4.7-3.1-13.3.5-5.2,2.2-7.2,4.7-6.3,8.1.6,2.3,4.3,4.6,7.6,4.6,2.4,0,3.4-1.6,1.5-2.4a3.22,3.22,0,0,1-1.5-2.9c0-5.4,6.7-6.4,8.5-1.3.8,2.5.6,3.1-1.8,5.2-2.1,1.8-4,2.4-7.6,2.4-6.2,0-9.6-3.2-9.6-9.2,0-6.2,4.5-9.5,19.2-14.1,13.2-4.1,17.6-6.8,17.6-11.1,0-3.5-3.9-7.6-7.3-7.6-2.3,0-2.6.3-2.2,2.8.5,3.5-1.8,5.7-5.2,4.8-2.9-.7-4-3.1-2.5-5.7C726.5,1366.69,733.4,1365.49,738.4,1368.09Zm-331.8,13c9.6,25.6,12.1,31.6,12.6,31,.3-.3,4.2-10.3,8.7-22.3l8.1-21.7,6.3-.3c7-.3,10.7,1.3,5.4,2.4-2,.4-3.3,1.4-3.7,2.8-.3,1.1-.6,12.1-.6,24.3,0,23.7.3,25.3,5.1,25.3,1.1,0,1.7.4,1.4,1-.8,1.2-20.5,1.4-20.5.1,0-.5,1.3-1.1,2.9-1.4,2.2-.5,3-1.3,3.5-3.8.9-4.7.7-43.4-.2-42.4-.5.6-2.3,5-4.1,10s-5.3,14.4-7.8,21-5,13.3-5.5,14.8-1.5,2.6-2,2.5c-1-.4-7.5-16.3-18.4-45.3l-1.9-5-.3,21.8c-.1,13.8.1,22.5.8,23.7a6.18,6.18,0,0,0,3.5,2.6c4.9,1.2,2.4,2.4-5,2.4-8,0-9.4-.8-4.5-2.7l3-1.1v-49.3l-3-1c-5.2-1.8-3.3-3,4.1-2.7l7.2.3Zm377.9-10.8c.5,1.6,4.4,11.9,8.7,23l7.6,20.1,3.4-8.6c1.8-4.8,4.2-11.3,5.3-14.5s3.5-9.5,5.3-14l3.2-8.2,6.3-.3c6.9-.3,10.2,1.1,5.4,2.3a6.69,6.69,0,0,0-3.5,1.8c-.4.7-.8,11.6-.8,24.4,0,19.7.2,23.4,1.6,24.7a5,5,0,0,0,3,1.6c.8,0,1.4.4,1.4,1s-4,1-10,1-10-.4-10-1,.8-1,1.8-1c3.9,0,4.2-1.6,4.1-24.5v-22l-9.1,24.3c-5,13.3-9.6,24.1-10.1,23.9s-2.7-4.6-4.7-9.8-6.4-16.2-9.6-24.4l-5.9-15-.3,21.3c-.3,22.6.1,24.7,4.3,25.8,4.9,1.2,2.4,2.4-5,2.4-4.3,0-7.5-.4-7.5-1s.6-1,1.4-1a5,5,0,0,0,3-1.6c1.4-1.3,1.6-5.1,1.6-25.5v-24l-3-1c-5-1.8-3.4-2.9,4-2.9C783.2,1367.59,783.5,1367.69,784.5,1370.29Zm190.1,6.5.3,6.3,5.8.3c7.6.4,7.3,2.2-.4,2.2h-6l.3,17c.2,14.2.6,17.2,2,18.6,2.5,2.5,6.5,1.1,8.5-3.1,1.7-3.6,3.3-4.6,3.3-2.1s-4.5,8-7.1,9c-4.4,1.5-9.8-.1-11.9-3.7-1.8-2.8-2-5.1-2-19.5v-16.2H964c-1.9,0-3.8-.5-4.1-1s1-1,3.4-1h4.1v-5.8c0-6.7.3-7.2,4.1-7.2C974.2,1370.59,974.3,1370.79,974.6,1376.79Zm119,0,.3,6.3,5.8.3c7.6.4,7.3,2.2-.4,2.2h-6l.3,17c.2,14.2.6,17.2,2,18.6,2.5,2.5,6.5,1.1,8.5-3.1s3.8-4.6,2.9-.8-6,8.3-9.6,8.3c-9.4,0-11-3.6-11-24.5v-15.5h-4c-2.2,0-4-.5-4-1s1.8-1,4-1h4v-5.8c0-6.7.3-7.2,4.1-7.2C1093.2,1370.59,1093.3,1370.79,1093.6,1376.79Zm191.8.3v6.5h5.5c3,0,5.5.4,5.5,1s-2.5,1-5.5,1h-5.5v17.5c0,17.5,0,17.5,2.4,18.6,3.1,1.4,6-.1,7.8-4.1.7-1.6,1.6-3,2-3,1.3,0,.9,3.1-.9,6-2.7,4.6-8.4,6.3-13.6,3.9-4.6-2.1-5.2-4.3-5.5-22.2l-.4-16.7h-3.3c-1.9,0-3.7-.5-4-1s1-1,3.4-1h4.1v-5.8c0-3.2.3-6.2.7-6.5s2.1-.7,4-.7h3.3Zm-806.4,6c9,2.7,12.4,8.4,12.4,21.2,0,7.2-.4,9.5-2.3,12.8-4.9,8.8-18.4,11.3-26.4,4.9-6.3-5-8.9-16.3-6.2-26.7,1.9-7.6,7.2-11.8,17-13.6A34,34,0,0,1,479,1383.09Zm46.4-.5c1.5,0,5,4.3,5,6,0,2.7-3.6,5.3-6.3,4.6-3.2-.8-4.1-3.3-2.2-6.2,1.4-2.2,1.4-2.4-.3-2.4-2.8,0-6,2.8-8.2,7-1.7,3.3-2,5.9-2,15.9,0,11.3.1,12.1,2.2,13.5a8.2,8.2,0,0,0,4,1.6c1,0,1.8.4,1.8,1s-4.3,1-11,1-11-.4-11-1,.8-1,1.8-1c3.8,0,4.2-1.9,4.2-18.5s-.4-18.5-4.2-18.5c-1,0-1.8-.5-1.8-1s2.1-1,4.8-1a39.48,39.48,0,0,0,7-.6c2-.6,2.2-.3,2.2,3.2l.1,3.9,2.7-3.2c2.8-3.4,6.8-5.5,9-4.7A13.06,13.06,0,0,0,525.4,1382.59Zm31.3,1.6c2.5,1.4,3,1.3,5.4-.6,4.6-3.6,10.3-2.2,10.3,2.6,0,5.3-6.2,5.9-7,.6l-.5-3.3-2.3,2.1c-1.7,1.6-2,2.5-1.2,4,1.3,2.5,1.3,8.6-.1,11.3-1.9,3.4-5.1,5.5-9.4,6.3-5,.8-8.5,3.1-8.5,5.4s2,3,10.1,3c11,0,15.9,3,15.9,9.6,0,9.9-16.1,17.2-29.6,13.4-4.6-1.3-8.4-4.9-8.4-8,0-2.4,4.8-7,7.3-7,1.9,0,1.9.1.4,1.8s-2.2,4.1-1.9,7.2c.3,2.7,5.6,5,11.5,5,9.1,0,14.7-3.4,14.7-8.9,0-4.4-2.3-5.5-12.6-6.2-5.2-.3-10-1.2-10.9-1.9-2.6-2.2-1.9-7.5,1.5-10.3,3.5-3,3.7-3.7,1.1-3.7s-6.9-4.2-7.7-7.5c-1-4.1.2-10.5,2.6-13C541.5,1381.69,550.2,1380.89,556.7,1384.19Zm43.7.3c3.9,2.8,4.9,7.3,4.9,23l.1,14.3,3-.4c1.7-.3,3-.2,3,.2,0,1.7-2.8,3-6.7,3-3.4,0-4.6-.5-5.9-2.5l-1.6-2.5-3,2.5c-2.4,2-4,2.5-8.8,2.5-5.1,0-6.1-.3-7.9-2.6a11.06,11.06,0,0,1-2.1-6.6c0-5.2,3.5-8.7,11.5-11.7,9.8-3.6,10.5-4.3,10.5-10.4s-.6-7.2-4.4-8.7a8.3,8.3,0,0,0-6.2,0c-3.8,1.3-4,1.6-1.9,3.6,3.4,3.4.8,7.8-4.2,7.2-2.4-.3-2.8-.8-3.1-3.9-.4-4.4,1.9-6.7,8.5-8.5C591.7,1381.39,596.9,1382,600.4,1384.49Zm48,0c3.4,2.4,3.8,4.5,3.9,20.8.1,11.4.4,14.5,1.7,15.7a5,5,0,0,0,3,1.6c.8,0,1.4.4,1.4,1,0,1.1-17.2,1.4-18.3.3-.4-.3.3-1.1,1.6-1.7,2.1-1.1,2.2-1.7,2.5-17.5.2-11.2-.1-16.8-.9-17.7-1.7-2.1-8.2-1.7-11.1.5-3.5,2.8-4.8,8.3-4.8,20.5,0,10.9.9,14.6,3.5,14.6.8,0,1.5.4,1.5,1s-3.7,1-9,1c-8.6,0-11.7-1.1-6.6-2.4,3.2-.8,3.6-2.8,3.6-18.3,0-14.4-.8-18.3-4-18.3-1.1,0-2-.5-2-1s1.9-1,4.3-1a36,36,0,0,0,6.5-.6c2-.6,2.2-.3,2.2,3.7v4.4l2.1-3.3c1.2-1.7,2.2-3.2,2.2-3.2s2-.7,4.2-1.5C640.5,1381.49,644.8,1381.89,648.4,1384.49Zm214-.6c4.3,2.1,5,5,5,21.2,0,16,.6,18.3,4.2,16.4,2.7-1.4,3.8-.1,1.4,1.7-1.1.8-3.9,1.4-6.3,1.4-3.6,0-4.5-.4-5.4-2.4l-1.1-2.4-3.6,2.4c-2.6,1.8-4.8,2.4-8.8,2.4-5.6,0-7.8-1.3-9.5-5.8-2.4-6.3,1.8-11.5,12.6-15.7,8-3,9.5-4.5,9.5-9.1,0-8-4.2-11.5-11.3-9.4-3.7,1.1-3.8,1.2-2.2,3a6.57,6.57,0,0,1,1.3,4.7c-.2,2.3-.8,2.8-3.5,3.1s-3.5-.1-4.5-2.3C836.8,1385.59,852.3,1379.19,862.4,1383.89Zm82.5-1.2c6.4,1.8,9.5,5.5,10.9,13.1l.7,3.8H944c-14.2,0-14.4.2-13.1,8.3,1.5,8.7,6.1,13.7,12.6,13.7,3.1,0,4.8-.8,7.9-3.6,4.9-4.5,6.3-3.8,2.5,1.2-8.4,11-25.3,7.4-30-6.5-1.9-5.7-1.9-9.9.1-16.7,2.3-8.1,7.4-12.5,16.4-14.3A36.6,36.6,0,0,1,944.9,1382.69Zm122.3,1.6c3.6,2.2,4.2,5.4,4.2,21.5v15l3,1.1c5.2,2,3.3,2.7-6.5,2.7-9.5,0-11.5-.7-7.2-2.5,2.1-1,2.2-1.5,2.5-17.4.2-11.2-.1-16.8-.9-17.7-.6-.8-2.7-1.4-4.6-1.4-8.5,0-11.2,5.4-11.3,22.2,0,9.3.3,12,1.6,13.2a4.87,4.87,0,0,0,2.5,1.6.92.92,0,0,1,.9,1c0,.6-3.7,1-9,1s-9-.4-9-1,.6-1,1.4-1a5,5,0,0,0,3-1.6c1.3-1.3,1.6-4.2,1.6-15.9,0-15.6-.8-19.5-4-19.5-1.1,0-2-.5-2-1s1.9-1,4.3-1a36,36,0,0,0,6.5-.6c2-.6,2.2-.3,2.2,3.2v3.8l3.1-3.2C1054.5,1381.69,1061.5,1380.69,1067.2,1384.29Zm69.4-.1c3.3,1.7,5.5,5.6,6.4,11.3l.7,4.1h-25.3v5.5c0,6.2,2.6,12.4,6.2,14.9,1.2.9,4.2,1.6,6.6,1.6,3.7,0,5-.6,7.9-3.5,4-4,5.7-3.9,2.6.3s-8.2,7.2-12.2,7.2c-14.5,0-22.1-12.3-18.1-29.4A17.42,17.42,0,0,1,1136.6,1384.19Zm43.1.2c2.1,1.8,2.2,6.5.3,8.2-3.7,3-9.2-1.2-6.8-5.1,1.6-2.5,1.1-3.3-1.8-2.4-6.1,1.9-9,9.3-9,22.9,0,11,.9,13.3,5.5,14.2,6.9,1.3,3.4,2.4-7.5,2.4-6.7,0-11-.4-11-1s.6-1,1.4-1a5,5,0,0,0,3-1.6c1.3-1.3,1.6-4.2,1.6-16.5,0-15.6-.7-18.9-4-18.9-1.1,0-2-.5-2-1s1.9-1,4.3-1a36,36,0,0,0,6.5-.6c2-.6,2.2-.3,2.2,3.7v4.4l2.7-3.4C1169.6,1381.89,1175.4,1380.59,1179.7,1384.39Zm38.8-.5c3.7,2.3,4.3,4.9,4.7,20.7.2,8.5.9,16.1,1.4,16.7a4.34,4.34,0,0,0,2.9,1.3c1.1,0,1.9.4,1.9,1s-3.8,1-9.5,1c-9.5,0-11.5-.7-7.2-2.5,2.1-1,2.2-1.5,2.5-16.1.1-8.4-.2-16.3-.7-17.8-.9-2.3-1.6-2.6-5.5-2.6-3.7,0-4.8.5-7,3.1-3.5,4.1-3.7,5.4-3.4,19.9.3,11.9.4,12.5,2.6,13.5,4.2,1.8,2.2,2.5-7.3,2.5-5.7,0-9.5-.4-9.5-1s.8-1,1.8-1c3.8,0,4.2-1.9,4.2-17.8s-.7-19.2-4-19.2c-1.1,0-2-.5-2-1s2.1-1,4.8-1a39.48,39.48,0,0,0,7-.6c2-.6,2.2-.3,2.2,3.1v3.7l2.5-3C1204.8,1382.09,1213.4,1380.69,1218.5,1383.89Zm36.1-1.3c7,2,7.8,4.2,7.8,21.4,0,8.3.4,15.7.9,16.5s1.8,1.1,3.5.7c3-.8,3.5.8.7,2.4-4.4,2.3-12.1.4-12.1-3,0-.5-1.6.2-3.6,1.5a14,14,0,0,1-8.7,2.5c-6.8,0-9.7-2.6-9.7-8.7,0-5.6,3.5-9.4,11.5-12.3,9.7-3.5,10.5-4.2,10.5-10.4,0-6.5-2.2-9.1-8.1-9.1-5,0-6.9,1.8-4.6,4.3,3.2,3.5,1.4,7.2-3.5,7.2a3.76,3.76,0,0,1-4-2.5c-1.6-3.6,1.5-7.5,7.8-9.7C1248.8,1381.39,1249.8,1381.29,1254.6,1382.59Zm97.9,2.2c5.3,2.9,8.1,8.6,8.7,17.2.8,13.9-5.1,22.3-16.4,23.3-12.5,1-20-7.1-19.8-21.6.1-4.7.7-9,1.7-11.2,1.9-4.3,6.8-8.7,10.5-9.5a33.42,33.42,0,0,0,3.7-.9C1342.9,1381.39,1349,1382.89,1352.5,1384.79Zm45.2-2.1c6.6,1.8,7.7,4.9,7.7,22.1,0,12,.3,14.9,1.6,16.2a5,5,0,0,0,3,1.6c.8,0,1.4.4,1.4,1s-3.8,1-9.5,1-9.5-.4-9.5-1,.6-1,1.4-1a4.86,4.86,0,0,0,3-2.2c2.2-3.1,2.3-26.3.2-31.3-1.4-3.2-1.9-3.5-5.4-3.5-8.4,0-11.2,5.6-11.2,22.4,0,10.9.9,14.6,3.5,14.6.8,0,1.5.4,1.5,1s-3.7,1-9,1-9-.4-9-1,.6-1,1.4-1c3.6,0,4.6-4,4.6-18.2,0-14.9-.8-18.8-4-18.8-1.1,0-2-.5-2-1s1.9-1,4.3-1a36,36,0,0,0,6.5-.6c2-.6,2.2-.3,2.2,3.2l.1,3.9,2.3-2.8a14.54,14.54,0,0,1,6.2-4.2C1393.8,1381.39,1393.1,1381.39,1397.7,1382.69Zm42.2,1.1c4.5,2,5.5,6.2,5.5,22.8v15.2l3-.4c1.7-.3,3-.1,3,.3,0,3.4-10.5,3.8-12.4.4-.6-1.1-1.2-2.2-1.3-2.4s-1.6.8-3.3,2.3c-2.5,2.1-4.2,2.6-8.4,2.6-3,0-6.1-.6-7.3-1.5-3-2.1-4-7.8-2-12,1.5-3.2,4.2-4.9,16.4-10,4.7-2,5.7-4.2,4.7-10.6-.6-3.5-1.2-4.3-4.1-5.6a8.33,8.33,0,0,0-6.9-.3c-3.1,1.1-4.7,3-2.4,3,1.6,0,2.3,4.9,1,6.5a5.06,5.06,0,0,1-6.8.3c-2-2-1.4-5.8,1.4-8.3C1424.5,1382,1433.6,1380.89,1439.9,1383.79Zm-416.5,17.9v19.1l3,1.1c1.7.6,3,1.5,3,1.9s-4.5.8-10,.8c-6,0-10-.4-10-1s.8-1,1.8-1c3.8,0,4.2-1.9,4.2-18.5s-.4-18.5-4.2-18.5c-1,0-1.8-.4-1.8-1s2.6-1.1,5.8-1.3,6.3-.4,7-.5C1023.1,1382.59,1023.4,1387,1023.4,1401.69Zm290-.7c0,15.4.3,18.7,1.6,20a5,5,0,0,0,3,1.6c.8,0,1.4.4,1.4,1s-3.8,1-9.5,1-9.5-.4-9.5-1,.6-1,1.4-1a5,5,0,0,0,3-1.6c1.3-1.3,1.6-4.2,1.6-15.9,0-15.6-.8-19.5-4-19.5-1.1,0-2-.4-2-.9s2.4-1.2,5.3-1.4,5.8-.4,6.5-.5C1313.1,1382.59,1313.4,1386.89,1313.4,1401Z"/><path class="cls-1" d="M469.8,1385.49a12.06,12.06,0,0,0-4.4,5.1c-1.5,3.6-1.9,18.5-.7,24.1,1.8,8.7,10,11.8,15.1,5.9,3.1-3.7,4.1-8.2,4-17.7-.1-9.1-2.5-15.8-6.4-17.8C473.7,1383.19,473.5,1383.19,469.8,1385.49Z"/><path class="cls-1" d="M544.4,1385.59c-2.6,2.6-2.9,14.3-.4,17.8,2.2,3.2,7.3,2.7,9.2-.8,2-3.9,1.2-15.6-1.3-17.4C549.2,1383.09,546.8,1383.19,544.4,1385.59Z"/><path class="cls-1" d="M591.3,1404.09c-8.3,4.2-11.3,11.1-6.9,15.5,2.7,2.7,6.2,2.5,9.9-.6,2.9-2.5,3.1-2.9,3.1-10,0-4.1-.3-7.4-.7-7.3A55.35,55.35,0,0,0,591.3,1404.09Z"/><path class="cls-1" d="M853.2,1404.59c-6.3,3.3-7.8,5.2-7.8,10.3,0,6.8,6.9,9,12.1,3.8,2.7-2.7,2.9-3.5,2.9-10,0-3.9-.3-7.1-.7-7.1A56.63,56.63,0,0,0,853.2,1404.59Z"/><path class="cls-1" d="M936,1386.09a14,14,0,0,0-4.6,10.1c0,2.3.2,2.4,7.9,2.4,4.6,0,8.3-.5,8.6-1.1,1.1-1.7-1.5-10.2-3.7-12.2C941.4,1383,939.2,1383.19,936,1386.09Z"/><path class="cls-1" d="M1123.5,1386.19c-2.7,2.2-5.1,7.5-5.1,11.1,0,1,2.4,1.3,8.5,1.3h8.5v-3c0-6-3.9-12-7.9-12C1127,1383.59,1125.2,1384.79,1123.5,1386.19Z"/><path class="cls-1" d="M1248.5,1404.49c-7.8,4-10.5,10.7-6.1,15.1,2.7,2.7,6.2,2.5,9.9-.6,2.9-2.5,3.1-2.9,3.1-10,0-4.1-.3-7.4-.7-7.4A47,47,0,0,0,1248.5,1404.49Z"/><path class="cls-1" d="M1339.2,1385.09c-7.3,4-8.7,27.7-2.1,35.6,5.1,6,13.1,2.3,15.2-7.1,2.7-11.6.2-24.7-5.2-28C1343.3,1383.29,1342.7,1383.19,1339.2,1385.09Z"/><path class="cls-1" d="M1431.9,1404c-5.4,2.5-7.9,4.8-9,8.4-1,3.3,1.3,8.1,4.1,8.8,3.5.9,8.2-1.4,9.9-4.7,1.5-2.9,2.1-14.9.8-14.8A32.51,32.51,0,0,0,1431.9,1404Z"/></svg>