<?xml version="1.0" standalone="no"?>
<!DOCTYPE svg PUBLIC "-//W3C//DTD SVG 20010904//EN"
 "http://www.w3.org/TR/2001/REC-SVG-20010904/DTD/svg10.dtd">
<svg version="1.0" xmlns="http://www.w3.org/2000/svg"
 width="1920.000000pt" height="1920.000000pt" viewBox="0 0 1920.000000 1920.000000"
 preserveAspectRatio="xMidYMid meet">

<g transform="translate(0.000000,1920.000000) scale(0.100000,-0.100000)"
fill="#000000" stroke="none">
<path d="M9285 18904 c-765 -39 -1295 -113 -1925 -269 -1449 -359 -2772 -1052
-3915 -2050 -218 -191 -639 -612 -830 -830 -998 -1143 -1691 -2466 -2050
-3915 -186 -750 -269 -1441 -269 -2235 0 -793 84 -1495 270 -2240 612 -2454
2188 -4551 4369 -5812 1537 -890 3319 -1326 5075 -1243 2136 101 4102 893
5730 2308 308 267 788 766 1070 1112 992 1213 1670 2694 1945 4245 557 3140
-530 6345 -2879 8492 -1053 963 -2309 1669 -3676 2068 -663 193 -1305 306
-2025 355 -155 11 -767 20 -890 14z m-7780 -5634 c268 -13 865 -13 1110 0 105
5 216 11 249 12 l59 3 62 -165 c35 -91 138 -363 230 -605 92 -242 227 -597
300 -790 73 -192 201 -530 285 -750 84 -220 212 -557 285 -750 73 -192 201
-530 285 -750 236 -621 461 -1212 582 -1534 78 -205 114 -288 119 -275 39 104
1182 3165 1842 4934 l245 655 658 7 c363 4 742 11 844 16 102 5 188 8 193 5 4
-2 7 -46 7 -97 l0 -94 -87 -7 c-127 -10 -284 -32 -356 -51 -179 -46 -269 -140
-311 -324 -31 -138 -36 -285 -36 -1122 l0 -838 -455 0 -455 0 -2 937 -3 937
-192 -514 c-105 -283 -327 -879 -493 -1325 -166 -445 -422 -1134 -570 -1530
-148 -396 -411 -1102 -585 -1570 -174 -467 -357 -960 -407 -1095 -51 -135 -97
-248 -102 -252 -6 -4 -41 -8 -78 -8 -54 0 -69 3 -77 18 -8 16 -70 175 -506
1297 -91 234 -239 616 -330 850 -91 234 -239 616 -330 850 -91 234 -239 616
-330 850 -91 234 -239 615 -329 848 -90 232 -239 616 -331 852 -277 715 -287
740 -291 744 -3 3 -3 -1219 -1 -2715 3 -2028 7 -2736 15 -2784 46 -251 112
-361 267 -442 98 -51 256 -89 420 -102 44 -4 104 -9 133 -12 l53 -6 -3 -96
c-3 -90 -4 -97 -23 -95 -108 10 -630 23 -955 23 -326 0 -796 -12 -905 -23 -19
-2 -20 5 -23 95 l-3 97 43 5 c24 3 86 9 138 15 266 29 424 110 513 263 38 63
74 213 86 355 14 154 14 5186 1 5328 -29 309 -114 431 -340 490 -69 18 -227
41 -352 50 l-88 7 0 93 c0 50 3 95 7 98 3 4 29 5 57 2 28 -3 145 -10 261 -15z
m9120 0 c270 -13 868 -13 1105 0 102 5 213 11 248 12 l63 3 225 -590 c123
-324 289 -761 369 -970 79 -209 210 -553 290 -765 81 -212 221 -581 312 -820
91 -239 218 -574 283 -745 155 -407 426 -1120 556 -1464 57 -151 105 -276 107
-277 2 -3 131 340 1114 2976 223 597 535 1432 693 1855 l288 770 658 7 c363 4
742 11 844 16 102 5 188 8 193 5 4 -2 7 -46 7 -97 l0 -93 -132 -12 c-463 -42
-576 -119 -636 -434 -16 -86 -17 -271 -17 -2812 0 -2541 1 -2726 17 -2812 51
-266 141 -354 413 -403 55 -10 136 -21 180 -24 44 -4 102 -9 128 -12 l48 -6
-3 -96 c-3 -96 -3 -97 -28 -95 -179 11 -806 23 -1225 23 -510 0 -1150 -14
-1207 -26 l-28 -6 0 100 0 100 48 6 c26 3 85 8 132 12 119 9 298 47 364 77 64
30 135 98 165 160 35 71 59 195 71 352 8 105 10 952 8 2795 l-3 2645 -207
-555 c-664 -1782 -1667 -4476 -2070 -5560 -34 -91 -67 -168 -72 -172 -6 -4
-41 -8 -78 -8 -54 0 -69 3 -77 18 -9 17 -60 148 -385 985 -270 696 -481 1239
-696 1792 -111 286 -276 711 -367 945 -91 234 -239 616 -330 850 -91 234 -270
695 -398 1025 -269 693 -250 647 -290 705 -70 102 -99 138 -160 191 -70 60
-121 89 -259 144 -143 57 -270 82 -498 100 l-88 7 0 93 c0 50 3 95 7 98 3 4
29 5 57 2 28 -3 145 -10 261 -15z m-165 -2841 c137 -32 240 -88 340 -189 141
-140 191 -267 191 -480 0 -193 -51 -335 -170 -477 -151 -179 -306 -261 -808
-425 -139 -46 -253 -85 -253 -88 0 -3 32 -21 71 -40 151 -74 298 -221 373
-375 72 -147 100 -274 99 -455 0 -244 -67 -443 -216 -643 -281 -379 -759 -587
-1347 -587 -359 0 -677 72 -962 216 -354 180 -586 449 -675 781 -24 89 -26
115 -26 283 0 167 2 194 25 281 46 172 138 322 287 469 131 130 310 235 531
314 l94 34 -64 32 c-255 129 -413 331 -442 569 -30 240 100 459 352 590 150
79 300 111 512 111 262 0 440 -60 573 -193 214 -213 199 -481 -32 -567 -252
-94 -473 170 -325 388 38 57 96 100 161 118 31 9 58 18 60 20 3 3 -11 20 -30
40 -73 76 -192 114 -359 114 -128 0 -210 -19 -302 -67 -138 -72 -240 -209
-273 -368 -19 -92 -19 -247 1 -343 27 -132 114 -292 207 -381 l36 -34 78 12
c231 32 346 24 409 -31 28 -25 34 -37 34 -70 0 -74 -64 -107 -183 -94 -76 8
-104 16 -235 68 l-103 40 -62 -22 c-80 -29 -206 -91 -265 -132 -170 -115 -288
-306 -322 -522 -18 -108 -8 -340 18 -438 129 -480 548 -776 1174 -829 260 -22
554 11 799 92 563 184 833 616 683 1090 -64 204 -149 314 -322 418 -137 82
-134 82 -329 21 -484 -151 -670 -237 -784 -364 -91 -101 -109 -275 -41 -399
58 -107 221 -209 363 -227 130 -16 297 20 353 75 20 21 20 35 1 35 -30 0 -132
59 -164 95 -44 51 -53 78 -54 160 -1 117 48 195 149 242 59 27 152 33 219 14
158 -43 230 -245 150 -419 -51 -111 -206 -219 -380 -263 -107 -27 -285 -30
-375 -6 -118 31 -227 92 -305 171 -109 110 -155 232 -155 409 1 260 123 452
389 610 135 81 249 123 621 233 643 190 819 252 1029 359 282 144 391 302 360
521 -27 194 -207 377 -419 427 -97 23 -179 29 -239 17 -84 -16 -87 -24 -32
-78 51 -50 91 -135 91 -194 0 -122 -109 -232 -251 -253 -83 -12 -197 28 -252
90 -87 97 -73 281 29 375 136 125 438 177 694 119z m863 -2451 c4 -678 6 -794
21 -868 46 -237 112 -338 272 -418 91 -46 254 -84 409 -96 44 -4 104 -9 133
-12 l53 -6 -3 -96 c-3 -90 -4 -97 -23 -95 -108 10 -630 23 -955 23 -326 0
-796 -12 -905 -23 -19 -2 -20 5 -23 95 l-3 97 43 5 c24 3 86 9 138 15 266 29
424 110 513 263 38 63 73 209 86 355 7 75 11 394 11 832 l0 711 114 0 115 0 4
-782z m-2113 -3288 c8 -5 21 -10 28 -10 6 0 12 -4 12 -10 0 -6 -38 -10 -95
-10 -57 0 -95 4 -95 10 0 6 5 10 12 10 6 0 20 7 30 17 17 15 18 37 18 267 0
212 -2 255 -16 274 -8 12 -22 22 -30 22 -8 0 -14 4 -14 10 0 5 28 10 63 12
l62 3 5 -293 c4 -246 7 -294 20 -302z m230 0 c8 -5 21 -10 28 -10 6 0 12 -4
12 -10 0 -6 -38 -10 -94 -10 -53 0 -98 4 -101 10 -3 6 2 10 12 10 41 0 43 13
43 292 l0 268 -25 12 c-40 18 -29 27 38 30 l62 3 5 -293 c4 -246 7 -294 20
-302z m5530 304 l0 -296 30 -11 c17 -6 30 -15 30 -19 0 -12 -188 -10 -195 2
-3 6 2 10 12 10 41 0 43 14 43 286 0 225 -2 265 -16 278 -8 9 -23 16 -32 16
-10 0 -12 3 -6 9 5 6 34 12 64 14 30 2 58 4 63 5 4 1 7 -131 7 -294z m-4444
259 c18 -24 17 -43 -3 -65 -23 -26 -59 -23 -79 7 -15 23 -15 27 0 50 20 30 62
34 82 8z m2906 -8 c17 -37 -3 -75 -40 -75 -35 0 -52 16 -52 50 0 34 17 50 52
50 21 0 32 -7 40 -25z m-5752 -20 c39 -20 60 -53 60 -93 0 -67 -44 -110 -144
-142 l-38 -12 30 -28 c86 -78 49 -214 -74 -276 -30 -15 -60 -19 -129 -19 -81
0 -95 3 -144 30 -74 41 -106 91 -106 166 0 43 5 65 21 86 19 26 69 65 97 77 8
3 5 11 -9 23 -67 57 -55 143 24 174 30 12 94 12 126 -1 57 -21 71 -93 20 -106
-46 -12 -72 37 -38 71 22 22 11 30 -39 29 -73 -2 -109 -73 -72 -144 13 -26 21
-30 55 -30 39 0 60 -14 43 -31 -5 -5 -24 -4 -46 2 -44 12 -84 -6 -111 -51 -20
-35 -21 -102 -1 -139 49 -96 206 -129 324 -69 84 44 104 137 41 200 -32 32
-47 31 -133 -5 -52 -22 -72 -47 -63 -81 6 -23 43 -46 76 -46 24 0 34 16 15 24
-8 3 -15 16 -15 29 0 54 67 64 85 13 8 -25 6 -31 -18 -52 -21 -18 -40 -24 -76
-24 -62 0 -96 32 -96 92 0 62 45 95 192 141 132 41 176 68 176 111 0 35 -39
76 -73 76 -23 0 -26 -3 -22 -28 5 -35 -18 -57 -52 -48 -29 7 -40 31 -25 57 20
38 89 50 139 24z m-3318 -130 c96 -256 121 -316 126 -310 3 3 42 103 87 223
l81 217 63 3 c70 3 107 -13 54 -24 -20 -4 -33 -14 -37 -28 -3 -11 -6 -121 -6
-243 0 -237 3 -253 51 -253 11 0 17 -4 14 -10 -8 -12 -205 -14 -205 -1 0 5 13
11 29 14 22 5 30 13 35 38 9 47 7 434 -2 424 -5 -6 -23 -50 -41 -100 -18 -49
-53 -144 -78 -210 -25 -66 -50 -133 -55 -148 -6 -15 -15 -26 -20 -25 -10 4
-75 163 -184 453 l-19 50 -3 -218 c-1 -138 1 -225 8 -237 6 -11 22 -23 35 -26
49 -12 24 -24 -50 -24 -80 0 -94 8 -45 27 l30 11 0 247 0 246 -30 10 c-52 18
-33 30 41 27 l72 -3 49 -130z m3779 108 c5 -16 44 -119 87 -230 l76 -201 34
86 c18 48 42 113 53 145 12 32 35 95 53 140 l32 82 63 3 c69 3 102 -11 54 -23
-15 -3 -31 -12 -35 -18 -4 -7 -8 -116 -8 -244 0 -197 2 -234 16 -247 8 -9 22
-16 30 -16 8 0 14 -4 14 -10 0 -6 -40 -10 -100 -10 -60 0 -100 4 -100 10 0 6
8 10 18 10 39 0 42 16 41 245 l0 220 -91 -243 c-50 -133 -96 -241 -101 -239
-6 2 -27 46 -47 98 -21 52 -64 162 -96 244 l-59 150 -3 -213 c-3 -226 1 -247
43 -258 49 -12 24 -24 -50 -24 -43 0 -75 4 -75 10 0 6 6 10 14 10 8 0 22 7 30
16 14 13 16 51 16 255 l0 240 -30 10 c-50 18 -34 29 40 29 68 0 71 -1 81 -27z
m1901 -65 l3 -63 58 -3 c76 -4 73 -22 -4 -22 l-60 0 3 -170 c2 -142 6 -172 20
-186 25 -25 65 -11 85 31 17 36 33 46 33 21 0 -24 -45 -80 -71 -90 -44 -15
-98 1 -119 37 -18 28 -20 51 -20 195 l0 162 -34 0 c-19 0 -38 5 -41 10 -4 6
10 10 34 10 l41 0 0 58 c0 67 3 72 41 72 27 0 28 -2 31 -62z m1190 0 l3 -63
58 -3 c76 -4 73 -22 -4 -22 l-60 0 3 -170 c2 -142 6 -172 20 -186 25 -25 65
-11 85 31 20 42 38 46 29 8 -9 -39 -60 -83 -96 -83 -94 0 -110 36 -110 245 l0
155 -40 0 c-22 0 -40 5 -40 10 0 6 18 10 40 10 l40 0 0 58 c0 67 3 72 41 72
27 0 28 -2 31 -62z m1918 -3 l0 -65 55 0 c30 0 55 -4 55 -10 0 -5 -25 -10 -55
-10 l-55 0 0 -175 c0 -175 0 -175 24 -186 31 -14 60 1 78 41 7 16 16 30 20 30
13 0 9 -31 -9 -60 -27 -46 -84 -63 -136 -39 -46 21 -52 43 -55 222 l-4 167
-33 0 c-19 0 -37 5 -40 10 -4 6 10 10 34 10 l41 0 0 58 c0 32 3 62 7 65 3 4
21 7 40 7 l33 0 0 -65z m-8064 -60 c90 -27 124 -84 124 -212 0 -72 -4 -95 -23
-128 -49 -88 -184 -113 -264 -49 -63 50 -89 163 -62 267 19 76 72 118 170 136
3 1 28 -6 55 -14z m464 5 c15 0 50 -43 50 -60 0 -27 -36 -53 -63 -46 -32 8
-41 33 -22 62 14 22 14 24 -3 24 -28 0 -60 -28 -82 -70 -17 -33 -20 -59 -20
-159 0 -113 1 -121 22 -135 12 -9 30 -16 40 -16 10 0 18 -4 18 -10 0 -6 -43
-10 -110 -10 -67 0 -110 4 -110 10 0 6 8 10 18 10 38 0 42 19 42 185 0 166 -4
185 -42 185 -10 0 -18 5 -18 10 0 6 21 10 48 10 26 0 57 3 70 6 20 6 22 3 22
-32 l1 -39 27 32 c28 34 68 55 90 47 8 -2 18 -4 22 -4z m313 -16 c25 -14 30
-13 54 6 46 36 103 22 103 -26 0 -53 -62 -59 -70 -6 l-5 33 -23 -21 c-17 -16
-20 -25 -12 -40 13 -25 13 -86 -1 -113 -19 -34 -51 -55 -94 -63 -50 -8 -85
-31 -85 -54 0 -24 20 -30 101 -30 110 0 159 -30 159 -96 0 -99 -161 -172 -296
-134 -46 13 -84 49 -84 80 0 24 48 70 73 70 19 0 19 -1 4 -18 -16 -17 -22 -41
-19 -72 3 -27 56 -50 115 -50 91 0 147 34 147 89 0 44 -23 55 -126 62 -52 3
-100 12 -109 19 -26 22 -19 75 15 103 35 30 37 37 11 37 -25 0 -69 42 -77 75
-10 41 2 105 26 130 41 44 128 52 193 19z m437 -3 c39 -28 49 -73 49 -230 l1
-143 30 4 c17 3 30 2 30 -2 0 -17 -28 -30 -67 -30 -34 0 -46 5 -59 25 l-16 25
-30 -25 c-24 -20 -40 -25 -88 -25 -51 0 -61 3 -79 26 -13 17 -21 41 -21 66 0
52 35 87 115 117 98 36 105 43 105 104 0 61 -6 72 -44 87 -21 8 -38 8 -62 0
-38 -13 -40 -16 -19 -36 34 -34 8 -78 -42 -72 -24 3 -28 8 -31 39 -4 44 19 67
85 85 56 16 108 10 143 -15z m480 0 c34 -24 38 -45 39 -208 1 -114 4 -145 17
-157 8 -9 22 -16 30 -16 8 0 14 -4 14 -10 0 -11 -172 -14 -183 -3 -4 3 3 11
16 17 21 11 22 17 25 175 2 112 -1 168 -9 177 -17 21 -82 17 -111 -5 -35 -28
-48 -83 -48 -205 0 -109 9 -146 35 -146 8 0 15 -4 15 -10 0 -6 -37 -10 -90
-10 -86 0 -117 11 -66 24 32 8 36 28 36 183 0 144 -8 183 -40 183 -11 0 -20 5
-20 10 0 6 19 10 43 10 23 0 52 3 65 6 20 6 22 3 22 -37 l0 -44 21 33 c12 17
22 32 22 32 1 0 20 7 42 15 46 16 89 12 125 -14z m2140 6 c43 -21 50 -50 50
-212 0 -160 6 -183 42 -164 27 14 38 1 14 -17 -11 -8 -39 -14 -63 -14 -36 0
-45 4 -54 24 l-11 24 -36 -24 c-26 -18 -48 -24 -88 -24 -56 0 -78 13 -95 58
-24 63 18 115 126 157 80 30 95 45 95 91 0 80 -42 115 -113 94 -37 -11 -38
-12 -22 -30 9 -10 15 -30 13 -47 -2 -23 -8 -28 -35 -31 -27 -3 -35 1 -45 23
-34 75 121 139 222 92z m825 12 c64 -18 95 -55 109 -131 l7 -38 -125 0 c-142
0 -144 -2 -131 -83 15 -87 61 -137 126 -137 31 0 48 8 79 36 49 45 63 38 25
-12 -84 -110 -253 -74 -300 65 -19 57 -19 99 1 167 23 81 74 125 164 143 3 0
23 -4 45 -10z m1223 -16 c36 -22 42 -54 42 -215 l0 -150 30 -11 c52 -20 33
-27 -65 -27 -95 0 -115 7 -72 25 21 10 22 15 25 174 2 112 -1 168 -9 177 -6 8
-27 14 -46 14 -85 0 -112 -54 -113 -222 0 -93 3 -120 16 -132 8 -9 20 -16 25
-16 5 0 9 -4 9 -10 0 -6 -37 -10 -90 -10 -53 0 -90 4 -90 10 0 6 6 10 14 10 8
0 22 7 30 16 13 13 16 42 16 159 0 156 -8 195 -40 195 -11 0 -20 5 -20 10 0 6
19 10 43 10 23 0 52 3 65 6 20 6 22 3 22 -32 l0 -38 31 32 c50 51 120 61 177
25z m694 1 c33 -17 55 -56 64 -113 l7 -41 -127 0 -126 0 0 -55 c0 -62 26 -124
62 -149 12 -9 42 -16 66 -16 37 0 50 6 79 35 40 40 57 39 26 -3 -31 -42 -82
-72 -122 -72 -145 0 -221 123 -181 294 26 116 147 173 252 120z m431 -2 c21
-18 22 -65 3 -82 -37 -30 -92 12 -68 51 16 25 11 33 -18 24 -61 -19 -90 -93
-90 -229 0 -110 9 -133 55 -142 69 -13 34 -24 -75 -24 -67 0 -110 4 -110 10 0
6 6 10 14 10 8 0 22 7 30 16 13 13 16 42 16 165 0 156 -7 189 -40 189 -11 0
-20 5 -20 10 0 6 19 10 43 10 23 0 52 3 65 6 20 6 22 3 22 -37 l0 -44 27 34
c45 58 103 71 146 33z m388 5 c37 -23 43 -49 47 -207 2 -85 9 -161 14 -167 6
-7 19 -13 29 -13 11 0 19 -4 19 -10 0 -6 -38 -10 -95 -10 -95 0 -115 7 -72 25
21 10 22 15 25 161 1 84 -2 163 -7 178 -9 23 -16 26 -55 26 -37 0 -48 -5 -70
-31 -35 -41 -37 -54 -34 -199 3 -119 4 -125 26 -135 42 -18 22 -25 -73 -25
-57 0 -95 4 -95 10 0 6 8 10 18 10 38 0 42 19 42 178 0 160 -7 192 -40 192
-11 0 -20 5 -20 10 0 6 21 10 48 10 26 0 57 3 70 6 20 6 22 3 22 -31 l0 -37
25 30 c39 47 125 61 176 29z m361 13 c70 -20 78 -42 78 -214 0 -83 4 -157 9
-165 6 -9 18 -11 35 -7 30 8 35 -8 7 -24 -44 -23 -121 -4 -121 30 0 5 -16 -2
-36 -15 -27 -18 -50 -25 -87 -25 -68 0 -97 26 -97 87 0 56 35 94 115 123 97
35 105 42 105 104 0 65 -22 91 -81 91 -50 0 -69 -18 -46 -43 32 -35 14 -72
-35 -72 -21 0 -32 7 -40 25 -16 36 15 75 78 97 58 20 68 21 116 8z m979 -22
c53 -29 81 -86 87 -172 8 -139 -51 -223 -164 -233 -125 -10 -200 71 -198 216
1 47 7 90 17 112 19 43 68 87 105 95 15 3 32 7 37 9 20 7 81 -8 116 -27z m452
21 c66 -18 77 -49 77 -221 0 -120 3 -149 16 -162 8 -9 22 -16 30 -16 8 0 14
-4 14 -10 0 -6 -38 -10 -95 -10 -57 0 -95 4 -95 10 0 6 6 10 14 10 8 0 22 10
30 22 22 31 23 263 2 313 -14 32 -19 35 -54 35 -84 0 -112 -56 -112 -224 0
-109 9 -146 35 -146 8 0 15 -4 15 -10 0 -6 -37 -10 -90 -10 -53 0 -90 4 -90
10 0 6 6 10 14 10 36 0 46 40 46 182 0 149 -8 188 -40 188 -11 0 -20 5 -20 10
0 6 19 10 43 10 23 0 52 3 65 6 20 6 22 3 22 -32 l1 -39 23 28 c12 16 40 35
62 42 48 17 41 17 87 4z m422 -11 c45 -20 55 -62 55 -228 l0 -152 30 4 c17 3
30 1 30 -3 0 -34 -105 -38 -124 -4 -6 11 -12 22 -13 24 -1 2 -16 -8 -33 -23
-25 -21 -42 -26 -84 -26 -30 0 -61 6 -73 15 -30 21 -40 78 -20 120 15 32 42
49 164 100 47 20 57 42 47 106 -6 35 -12 43 -41 56 -27 11 -42 12 -69 3 -31
-11 -47 -30 -24 -30 16 0 23 -49 10 -65 -15 -18 -51 -20 -68 -3 -20 20 -14 58
14 83 45 41 136 52 199 23z m-4165 -179 l0 -191 30 -11 c17 -6 30 -15 30 -19
0 -4 -45 -8 -100 -8 -60 0 -100 4 -100 10 0 6 8 10 18 10 38 0 42 19 42 185 0
166 -4 185 -42 185 -10 0 -18 4 -18 10 0 5 26 11 58 13 31 2 63 4 70 5 9 2 12
-42 12 -189z m2900 7 c0 -154 3 -187 16 -200 8 -9 22 -16 30 -16 8 0 14 -4 14
-10 0 -6 -38 -10 -95 -10 -57 0 -95 4 -95 10 0 6 6 10 14 10 8 0 22 7 30 16
13 13 16 42 16 159 0 156 -8 195 -40 195 -11 0 -20 4 -20 9 0 6 24 12 53 14
28 2 58 4 65 5 9 2 12 -41 12 -182z"/>
<path d="M4994 5051 c-17 -10 -37 -33 -44 -51 -15 -36 -19 -185 -7 -241 18
-87 100 -118 151 -59 31 37 41 82 40 177 -1 91 -25 158 -64 178 -37 19 -39 19
-76 -4z"/>
<path d="M5740 5050 c-26 -26 -29 -143 -4 -178 22 -32 73 -27 92 8 20 39 12
156 -13 174 -27 21 -51 20 -75 -4z"/>
<path d="M6209 4865 c-83 -42 -113 -111 -69 -155 27 -27 62 -25 99 6 29 25 31
29 31 100 0 41 -3 74 -7 73 -5 -1 -29 -12 -54 -24z"/>
<path d="M8828 4860 c-63 -33 -78 -52 -78 -103 0 -68 69 -90 121 -38 27 27 29
35 29 100 0 39 -3 71 -7 71 -5 -1 -34 -14 -65 -30z"/>
<path d="M9656 5045 c-29 -27 -46 -64 -46 -101 0 -23 2 -24 79 -24 46 0 83 5
86 11 11 17 -15 102 -37 122 -28 23 -50 21 -82 -8z"/>
<path d="M11531 5044 c-27 -22 -51 -75 -51 -111 0 -10 24 -13 85 -13 l85 0 0
30 c0 60 -39 120 -79 120 -5 0 -23 -12 -40 -26z"/>
<path d="M12781 4861 c-78 -40 -105 -107 -61 -151 27 -27 62 -25 99 6 29 25
31 29 31 100 0 41 -3 74 -7 74 -5 -1 -32 -13 -62 -29z"/>
<path d="M13688 5055 c-73 -40 -87 -277 -21 -356 51 -60 131 -23 152 71 27
116 2 247 -52 280 -38 23 -44 24 -79 5z"/>
<path d="M14615 4866 c-54 -25 -79 -48 -90 -84 -10 -33 13 -81 41 -88 35 -9
82 14 99 47 15 29 21 149 8 148 -5 0 -30 -10 -58 -23z"/>
</g>
</svg>
